<mxfile host="app.diagrams.net" modified="2024-04-18T13:26:51.400Z" agent="Mozilla/5.0 (Windows NT 10.0; Win64; x64) AppleWebKit/537.36 (KHTML, like Gecko) Chrome/124.0.0.0 Safari/537.36" version="24.2.5" etag="b3CSQW9Gi-jnSKV23E0p" type="github">
  <diagram name="Page-1" id="sjmpsNY5L6zh5_jfOdno">
    <mxGraphModel>
      <root>
        <mxCell id="0" />
        <mxCell id="1" parent="0" />
      </root>
    </mxGraphModel>
  </diagram>
</mxfile>
